<svg xmlns="http://www.w3.org/2000/svg" width="200" height="200" viewBox="0 0 200 200">
  <defs>
    <clipPath id="circleClip">
      <circle cx="100" cy="100" r="100" />
    </clipPath>
  </defs>
  <circle cx="100" cy="100" r="100" fill="#e6e6e6" />
  <g clip-path="url(#circleClip)">
    <!-- Face shape -->
    <ellipse cx="100" cy="95" rx="70" ry="85" fill="#f5d0a9" />
    
    <!-- Hair -->
    <path d="M30,100 Q50,40 100,40 Q150,40 170,100 L170,40 L30,40 Z" fill="#3a3a3a" />
    
    <!-- Eyes -->
    <ellipse cx="75" cy="90" rx="10" ry="5" fill="#3a3a3a" />
    <ellipse cx="125" cy="90" rx="10" ry="5" fill="#3a3a3a" />
    
    <!-- Eyebrows -->
    <path d="M65,80 Q75,75 85,80" stroke="#3a3a3a" stroke-width="3" fill="none" />
    <path d="M115,80 Q125,75 135,80" stroke="#3a3a3a" stroke-width="3" fill="none" />
    
    <!-- Nose -->
    <path d="M95,95 Q100,110 105,95" stroke="#a57c52" stroke-width="2" fill="none" />
    
    <!-- Mouth -->
    <path d="M80,120 Q100,130 120,120" stroke="#a02c2c" stroke-width="3" fill="none" />
    
    <!-- Beard -->
    <path d="M70,130 Q100,150 130,130 Q100,170 70,130" fill="#3a3a3a" opacity="0.7" />
    
    <!-- Shirt collar -->
    <path d="M60,180 L80,150 L120,150 L140,180" fill="#ffffff" />
  </g>
</svg>