<svg xmlns="http://www.w3.org/2000/svg" xmlns:xlink="http://www.w3.org/1999/xlink" width="200" height="200" viewBox="0 0 200 200">
  <defs>
    <clipPath id="circleClip">
      <circle cx="100" cy="100" r="100" />
    </clipPath>
    <linearGradient id="skinGradient" x1="0%" y1="0%" x2="100%" y2="100%">
      <stop offset="0%" style="stop-color:#e8c39e;stop-opacity:1" />
      <stop offset="100%" style="stop-color:#d4a373;stop-opacity:1" />
    </linearGradient>
    <linearGradient id="shirtGradient" x1="0%" y1="0%" x2="100%" y2="100%">
      <stop offset="0%" style="stop-color:#ffffff;stop-opacity:1" />
      <stop offset="100%" style="stop-color:#f5f5f5;stop-opacity:1" />
    </linearGradient>
    <filter id="shadow" x="-20%" y="-20%" width="140%" height="140%">
      <feGaussianBlur in="SourceAlpha" stdDeviation="3" />
      <feOffset dx="2" dy="2" result="offsetblur" />
      <feComponentTransfer>
        <feFuncA type="linear" slope="0.5" />
      </feComponentTransfer>
      <feMerge>
        <feMergeNode />
        <feMergeNode in="SourceGraphic" />
      </feMerge>
    </filter>
  </defs>
  
  <!-- Background -->
  <circle cx="100" cy="100" r="100" fill="#4361ee" />
  
  <g clip-path="url(#circleClip)">
    <!-- Background for photo effect -->
    <rect x="0" y="0" width="200" height="200" fill="#333" />
    
    <!-- Face shape -->
    <ellipse cx="100" cy="90" rx="70" ry="85" fill="url(#skinGradient)" filter="url(#shadow)" />
    
    <!-- Hair -->
    <path d="M30,100 Q50,30 100,30 Q150,30 170,100 L170,30 L30,30 Z" fill="#1a1a1a" />
    <path d="M40,60 Q60,40 80,50" stroke="#333" stroke-width="2" fill="none" />
    <path d="M120,50 Q140,40 160,60" stroke="#333" stroke-width="2" fill="none" />
    
    <!-- Eyebrows -->
    <path d="M65,75 Q75,70 85,75" stroke="#1a1a1a" stroke-width="4" fill="none" />
    <path d="M115,75 Q125,70 135,75" stroke="#1a1a1a" stroke-width="4" fill="none" />
    
    <!-- Eyes -->
    <g>
      <ellipse cx="75" cy="85" rx="10" ry="6" fill="#ffffff" />
      <ellipse cx="75" cy="85" rx="5" ry="5" fill="#3a3a3a" />
      <ellipse cx="73" cy="83" rx="2" ry="2" fill="#ffffff" />
    </g>
    <g>
      <ellipse cx="125" cy="85" rx="10" ry="6" fill="#ffffff" />
      <ellipse cx="125" cy="85" rx="5" ry="5" fill="#3a3a3a" />
      <ellipse cx="123" cy="83" rx="2" ry="2" fill="#ffffff" />
    </g>
    
    <!-- Nose -->
    <path d="M95,90 Q100,110 105,90" stroke="#a57c52" stroke-width="2" fill="none" />
    
    <!-- Mouth -->
    <path d="M80,120 Q100,130 120,120" stroke="#a02c2c" stroke-width="3" fill="none" />
    
    <!-- Beard -->
    <path d="M70,130 Q100,150 130,130 Q115,160 85,160 Q70,150 70,130" fill="#1a1a1a" opacity="0.9" />
    
    <!-- Shirt collar -->
    <path d="M30,200 L60,150 L140,150 L170,200 Z" fill="url(#shirtGradient)" />
    
    <!-- Subtle shadows for realism -->
    <ellipse cx="70" cy="110" rx="15" ry="10" fill="rgba(0,0,0,0.1)" />
    <ellipse cx="130" cy="110" rx="15" ry="10" fill="rgba(0,0,0,0.1)" />
    
    <!-- Highlights for realism -->
    <ellipse cx="70" cy="70" rx="20" ry="10" fill="rgba(255,255,255,0.1)" />
    <ellipse cx="130" cy="70" rx="20" ry="10" fill="rgba(255,255,255,0.1)" />
  </g>
</svg>